<mxfile host="app.diagrams.net" modified="2023-12-28T08:44:21.992Z" agent="Mozilla/5.0 (Windows NT 10.0; Win64; x64) AppleWebKit/537.36 (KHTML, like Gecko) Chrome/120.0.0.0 Safari/537.36" etag="Tj0VQa7O2YRe1daKhCSj" version="22.1.15" type="github">
  <diagram name="Page-1" id="PmspqFSB3Somd5Tn18KI">
    <mxGraphModel dx="2580" dy="1060" grid="1" gridSize="10" guides="1" tooltips="1" connect="1" arrows="1" fold="1" page="1" pageScale="1" pageWidth="827" pageHeight="1169" math="0" shadow="0">
      <root>
        <mxCell id="0" />
        <mxCell id="1" parent="0" />
        <mxCell id="7VwWwqNDW6o42_F8PzPi-1" value="Delivery" style="swimlane;html=1;childLayout=stackLayout;resizeParent=1;resizeParentMax=0;horizontal=0;startSize=20;horizontalStack=0;" vertex="1" parent="1">
          <mxGeometry x="20" y="10" width="1900" height="600" as="geometry" />
        </mxCell>
        <mxCell id="7VwWwqNDW6o42_F8PzPi-2" value="Airport" style="swimlane;html=1;startSize=20;horizontal=0;" vertex="1" parent="7VwWwqNDW6o42_F8PzPi-1">
          <mxGeometry x="20" width="1880" height="140" as="geometry" />
        </mxCell>
        <mxCell id="7VwWwqNDW6o42_F8PzPi-49" value="is flight leaving soon?" style="points=[[0.25,0.25,0],[0.5,0,0],[0.75,0.25,0],[1,0.5,0],[0.75,0.75,0],[0.5,1,0],[0.25,0.75,0],[0,0.5,0]];shape=mxgraph.bpmn.gateway2;html=1;verticalLabelPosition=bottom;labelBackgroundColor=#ffffff;verticalAlign=top;align=center;perimeter=rhombusPerimeter;outlineConnect=0;outline=none;symbol=none;gwType=exclusive;" vertex="1" parent="7VwWwqNDW6o42_F8PzPi-2">
          <mxGeometry x="520" y="40" width="50" height="50" as="geometry" />
        </mxCell>
        <mxCell id="7VwWwqNDW6o42_F8PzPi-8" value="Delivery" style="swimlane;html=1;startSize=20;horizontal=0;" vertex="1" parent="7VwWwqNDW6o42_F8PzPi-1">
          <mxGeometry x="20" y="140" width="1880" height="260" as="geometry" />
        </mxCell>
        <mxCell id="7VwWwqNDW6o42_F8PzPi-47" value="prepare vehicle" style="points=[[0.25,0,0],[0.5,0,0],[0.75,0,0],[1,0.25,0],[1,0.5,0],[1,0.75,0],[0.75,1,0],[0.5,1,0],[0.25,1,0],[0,0.75,0],[0,0.5,0],[0,0.25,0]];shape=mxgraph.bpmn.task;whiteSpace=wrap;rectStyle=rounded;size=10;html=1;taskMarker=abstract;" vertex="1" parent="7VwWwqNDW6o42_F8PzPi-8">
          <mxGeometry x="130" y="105" width="120" height="50" as="geometry" />
        </mxCell>
        <mxCell id="7VwWwqNDW6o42_F8PzPi-56" style="edgeStyle=orthogonalEdgeStyle;rounded=0;orthogonalLoop=1;jettySize=auto;html=1;" edge="1" parent="7VwWwqNDW6o42_F8PzPi-8" source="7VwWwqNDW6o42_F8PzPi-48" target="7VwWwqNDW6o42_F8PzPi-55">
          <mxGeometry relative="1" as="geometry" />
        </mxCell>
        <mxCell id="7VwWwqNDW6o42_F8PzPi-57" value="no" style="edgeLabel;html=1;align=center;verticalAlign=middle;resizable=0;points=[];" vertex="1" connectable="0" parent="7VwWwqNDW6o42_F8PzPi-56">
          <mxGeometry x="-0.2167" y="1" relative="1" as="geometry">
            <mxPoint as="offset" />
          </mxGeometry>
        </mxCell>
        <mxCell id="7VwWwqNDW6o42_F8PzPi-48" value="is vehicel prepare?" style="points=[[0.25,0.25,0],[0.5,0,0],[0.75,0.25,0],[1,0.5,0],[0.75,0.75,0],[0.5,1,0],[0.25,0.75,0],[0,0.5,0]];shape=mxgraph.bpmn.gateway2;html=1;verticalLabelPosition=bottom;labelBackgroundColor=#ffffff;verticalAlign=top;align=center;perimeter=rhombusPerimeter;outlineConnect=0;outline=none;symbol=none;gwType=exclusive;" vertex="1" parent="7VwWwqNDW6o42_F8PzPi-8">
          <mxGeometry x="520" y="140" width="50" height="50" as="geometry" />
        </mxCell>
        <mxCell id="7VwWwqNDW6o42_F8PzPi-50" value="" style="points=[[0.25,0.25,0],[0.5,0,0],[0.75,0.25,0],[1,0.5,0],[0.75,0.75,0],[0.5,1,0],[0.25,0.75,0],[0,0.5,0]];shape=mxgraph.bpmn.gateway2;html=1;verticalLabelPosition=bottom;labelBackgroundColor=#ffffff;verticalAlign=top;align=center;perimeter=rhombusPerimeter;outlineConnect=0;outline=none;symbol=none;gwType=parallel;" vertex="1" parent="7VwWwqNDW6o42_F8PzPi-8">
          <mxGeometry x="324" y="105" width="50" height="50" as="geometry" />
        </mxCell>
        <mxCell id="7VwWwqNDW6o42_F8PzPi-51" style="edgeStyle=orthogonalEdgeStyle;rounded=0;orthogonalLoop=1;jettySize=auto;html=1;entryX=0;entryY=0.5;entryDx=0;entryDy=0;entryPerimeter=0;" edge="1" parent="7VwWwqNDW6o42_F8PzPi-8" source="7VwWwqNDW6o42_F8PzPi-50" target="7VwWwqNDW6o42_F8PzPi-48">
          <mxGeometry relative="1" as="geometry" />
        </mxCell>
        <mxCell id="7VwWwqNDW6o42_F8PzPi-54" style="edgeStyle=orthogonalEdgeStyle;rounded=0;orthogonalLoop=1;jettySize=auto;html=1;entryX=0;entryY=0.5;entryDx=0;entryDy=0;entryPerimeter=0;" edge="1" parent="7VwWwqNDW6o42_F8PzPi-8" source="7VwWwqNDW6o42_F8PzPi-47" target="7VwWwqNDW6o42_F8PzPi-50">
          <mxGeometry relative="1" as="geometry" />
        </mxCell>
        <mxCell id="7VwWwqNDW6o42_F8PzPi-65" style="edgeStyle=orthogonalEdgeStyle;rounded=0;orthogonalLoop=1;jettySize=auto;html=1;entryX=1;entryY=0.5;entryDx=0;entryDy=0;entryPerimeter=0;" edge="1" parent="7VwWwqNDW6o42_F8PzPi-8" source="7VwWwqNDW6o42_F8PzPi-55" target="7VwWwqNDW6o42_F8PzPi-48">
          <mxGeometry relative="1" as="geometry">
            <mxPoint x="640" y="200" as="targetPoint" />
            <Array as="points">
              <mxPoint x="625" y="65" />
              <mxPoint x="625" y="165" />
            </Array>
          </mxGeometry>
        </mxCell>
        <mxCell id="7VwWwqNDW6o42_F8PzPi-55" value="wait for vacant" style="points=[[0.25,0,0],[0.5,0,0],[0.75,0,0],[1,0.25,0],[1,0.5,0],[1,0.75,0],[0.75,1,0],[0.5,1,0],[0.25,1,0],[0,0.75,0],[0,0.5,0],[0,0.25,0]];shape=mxgraph.bpmn.task;whiteSpace=wrap;rectStyle=rounded;size=10;html=1;taskMarker=abstract;" vertex="1" parent="7VwWwqNDW6o42_F8PzPi-8">
          <mxGeometry x="485" y="40" width="120" height="50" as="geometry" />
        </mxCell>
        <mxCell id="7VwWwqNDW6o42_F8PzPi-59" value="mobilized another fleet" style="points=[[0.25,0,0],[0.5,0,0],[0.75,0,0],[1,0.25,0],[1,0.5,0],[1,0.75,0],[0.75,1,0],[0.5,1,0],[0.25,1,0],[0,0.75,0],[0,0.5,0],[0,0.25,0]];shape=mxgraph.bpmn.task;whiteSpace=wrap;rectStyle=rounded;size=10;html=1;taskMarker=abstract;" vertex="1" parent="7VwWwqNDW6o42_F8PzPi-8">
          <mxGeometry x="650" y="40" width="120" height="50" as="geometry" />
        </mxCell>
        <mxCell id="7VwWwqNDW6o42_F8PzPi-67" style="edgeStyle=orthogonalEdgeStyle;rounded=0;orthogonalLoop=1;jettySize=auto;html=1;" edge="1" parent="7VwWwqNDW6o42_F8PzPi-8">
          <mxGeometry relative="1" as="geometry">
            <mxPoint x="570" y="165" as="targetPoint" />
            <mxPoint x="710" y="90" as="sourcePoint" />
            <Array as="points">
              <mxPoint x="710" y="165" />
            </Array>
          </mxGeometry>
        </mxCell>
        <mxCell id="7VwWwqNDW6o42_F8PzPi-68" value="send to flight" style="points=[[0.25,0,0],[0.5,0,0],[0.75,0,0],[1,0.25,0],[1,0.5,0],[1,0.75,0],[0.75,1,0],[0.5,1,0],[0.25,1,0],[0,0.75,0],[0,0.5,0],[0,0.25,0]];shape=mxgraph.bpmn.task;whiteSpace=wrap;rectStyle=rounded;size=10;html=1;taskMarker=abstract;" vertex="1" parent="7VwWwqNDW6o42_F8PzPi-8">
          <mxGeometry x="850" y="105" width="120" height="50" as="geometry" />
        </mxCell>
        <mxCell id="7VwWwqNDW6o42_F8PzPi-69" style="edgeStyle=orthogonalEdgeStyle;rounded=0;orthogonalLoop=1;jettySize=auto;html=1;entryX=0.5;entryY=1;entryDx=0;entryDy=0;entryPerimeter=0;" edge="1" parent="7VwWwqNDW6o42_F8PzPi-8" source="7VwWwqNDW6o42_F8PzPi-48" target="7VwWwqNDW6o42_F8PzPi-68">
          <mxGeometry relative="1" as="geometry">
            <Array as="points">
              <mxPoint x="545" y="230" />
              <mxPoint x="910" y="230" />
            </Array>
          </mxGeometry>
        </mxCell>
        <mxCell id="7VwWwqNDW6o42_F8PzPi-73" style="edgeStyle=orthogonalEdgeStyle;rounded=0;orthogonalLoop=1;jettySize=auto;html=1;" edge="1" parent="7VwWwqNDW6o42_F8PzPi-8" source="7VwWwqNDW6o42_F8PzPi-70" target="7VwWwqNDW6o42_F8PzPi-72">
          <mxGeometry relative="1" as="geometry" />
        </mxCell>
        <mxCell id="7VwWwqNDW6o42_F8PzPi-70" value="order conformation" style="points=[[0.25,0,0],[0.5,0,0],[0.75,0,0],[1,0.25,0],[1,0.5,0],[1,0.75,0],[0.75,1,0],[0.5,1,0],[0.25,1,0],[0,0.75,0],[0,0.5,0],[0,0.25,0]];shape=mxgraph.bpmn.task;whiteSpace=wrap;rectStyle=rounded;size=10;html=1;taskMarker=abstract;" vertex="1" parent="7VwWwqNDW6o42_F8PzPi-8">
          <mxGeometry x="1030" y="105" width="120" height="50" as="geometry" />
        </mxCell>
        <mxCell id="7VwWwqNDW6o42_F8PzPi-71" style="edgeStyle=orthogonalEdgeStyle;rounded=0;orthogonalLoop=1;jettySize=auto;html=1;entryX=0;entryY=0.5;entryDx=0;entryDy=0;entryPerimeter=0;" edge="1" parent="7VwWwqNDW6o42_F8PzPi-8" source="7VwWwqNDW6o42_F8PzPi-68" target="7VwWwqNDW6o42_F8PzPi-70">
          <mxGeometry relative="1" as="geometry" />
        </mxCell>
        <mxCell id="7VwWwqNDW6o42_F8PzPi-4" value="" style="points=[[0.145,0.145,0],[0.5,0,0],[0.855,0.145,0],[1,0.5,0],[0.855,0.855,0],[0.5,1,0],[0.145,0.855,0],[0,0.5,0]];shape=mxgraph.bpmn.event;html=1;verticalLabelPosition=bottom;labelBackgroundColor=#ffffff;verticalAlign=top;align=center;perimeter=ellipsePerimeter;outlineConnect=0;aspect=fixed;outline=end;symbol=terminate2;" vertex="1" parent="7VwWwqNDW6o42_F8PzPi-8">
          <mxGeometry x="1790" y="105" width="50" height="50" as="geometry" />
        </mxCell>
        <mxCell id="7VwWwqNDW6o42_F8PzPi-72" value="address returned item" style="points=[[0.25,0,0],[0.5,0,0],[0.75,0,0],[1,0.25,0],[1,0.5,0],[1,0.75,0],[0.75,1,0],[0.5,1,0],[0.25,1,0],[0,0.75,0],[0,0.5,0],[0,0.25,0]];shape=mxgraph.bpmn.task;whiteSpace=wrap;rectStyle=rounded;size=10;html=1;taskMarker=abstract;" vertex="1" parent="7VwWwqNDW6o42_F8PzPi-8">
          <mxGeometry x="1210" y="105" width="120" height="50" as="geometry" />
        </mxCell>
        <mxCell id="7VwWwqNDW6o42_F8PzPi-74" value="is there return food?" style="points=[[0.25,0.25,0],[0.5,0,0],[0.75,0.25,0],[1,0.5,0],[0.75,0.75,0],[0.5,1,0],[0.25,0.75,0],[0,0.5,0]];shape=mxgraph.bpmn.gateway2;html=1;verticalLabelPosition=bottom;labelBackgroundColor=#ffffff;verticalAlign=top;align=center;perimeter=rhombusPerimeter;outlineConnect=0;outline=none;symbol=none;gwType=exclusive;" vertex="1" parent="7VwWwqNDW6o42_F8PzPi-8">
          <mxGeometry x="1390" y="105" width="50" height="50" as="geometry" />
        </mxCell>
        <mxCell id="7VwWwqNDW6o42_F8PzPi-76" style="edgeStyle=orthogonalEdgeStyle;rounded=0;orthogonalLoop=1;jettySize=auto;html=1;entryX=0;entryY=0.5;entryDx=0;entryDy=0;entryPerimeter=0;" edge="1" parent="7VwWwqNDW6o42_F8PzPi-8" source="7VwWwqNDW6o42_F8PzPi-72" target="7VwWwqNDW6o42_F8PzPi-74">
          <mxGeometry relative="1" as="geometry" />
        </mxCell>
        <mxCell id="7VwWwqNDW6o42_F8PzPi-82" style="edgeStyle=orthogonalEdgeStyle;rounded=0;orthogonalLoop=1;jettySize=auto;html=1;" edge="1" parent="7VwWwqNDW6o42_F8PzPi-8" source="7VwWwqNDW6o42_F8PzPi-79" target="7VwWwqNDW6o42_F8PzPi-4">
          <mxGeometry relative="1" as="geometry" />
        </mxCell>
        <mxCell id="7VwWwqNDW6o42_F8PzPi-79" value="go back" style="points=[[0.25,0,0],[0.5,0,0],[0.75,0,0],[1,0.25,0],[1,0.5,0],[1,0.75,0],[0.75,1,0],[0.5,1,0],[0.25,1,0],[0,0.75,0],[0,0.5,0],[0,0.25,0]];shape=mxgraph.bpmn.task;whiteSpace=wrap;rectStyle=rounded;size=10;html=1;taskMarker=abstract;" vertex="1" parent="7VwWwqNDW6o42_F8PzPi-8">
          <mxGeometry x="1570" y="105" width="120" height="50" as="geometry" />
        </mxCell>
        <mxCell id="7VwWwqNDW6o42_F8PzPi-80" style="edgeStyle=orthogonalEdgeStyle;rounded=0;orthogonalLoop=1;jettySize=auto;html=1;" edge="1" parent="7VwWwqNDW6o42_F8PzPi-8">
          <mxGeometry relative="1" as="geometry">
            <mxPoint x="1440" y="129.77999999999997" as="sourcePoint" />
            <mxPoint x="1580" y="130" as="targetPoint" />
          </mxGeometry>
        </mxCell>
        <mxCell id="7VwWwqNDW6o42_F8PzPi-81" value="no" style="edgeLabel;html=1;align=center;verticalAlign=middle;resizable=0;points=[];" vertex="1" connectable="0" parent="7VwWwqNDW6o42_F8PzPi-80">
          <mxGeometry x="-0.105" y="2" relative="1" as="geometry">
            <mxPoint x="1" as="offset" />
          </mxGeometry>
        </mxCell>
        <mxCell id="7VwWwqNDW6o42_F8PzPi-10" value="Inventory" style="swimlane;html=1;startSize=20;horizontal=0;" vertex="1" parent="7VwWwqNDW6o42_F8PzPi-1">
          <mxGeometry x="20" y="400" width="1880" height="110" as="geometry" />
        </mxCell>
        <mxCell id="7VwWwqNDW6o42_F8PzPi-45" value="get items prepared" style="points=[[0.25,0,0],[0.5,0,0],[0.75,0,0],[1,0.25,0],[1,0.5,0],[1,0.75,0],[0.75,1,0],[0.5,1,0],[0.25,1,0],[0,0.75,0],[0,0.5,0],[0,0.25,0]];shape=mxgraph.bpmn.task;whiteSpace=wrap;rectStyle=rounded;size=10;html=1;taskMarker=abstract;" vertex="1" parent="7VwWwqNDW6o42_F8PzPi-10">
          <mxGeometry x="130" y="25" width="120" height="50" as="geometry" />
        </mxCell>
        <mxCell id="7VwWwqNDW6o42_F8PzPi-75" value="send back to Inventory" style="points=[[0.25,0,0],[0.5,0,0],[0.75,0,0],[1,0.25,0],[1,0.5,0],[1,0.75,0],[0.75,1,0],[0.5,1,0],[0.25,1,0],[0,0.75,0],[0,0.5,0],[0,0.25,0]];shape=mxgraph.bpmn.task;whiteSpace=wrap;rectStyle=rounded;size=10;html=1;taskMarker=abstract;" vertex="1" parent="7VwWwqNDW6o42_F8PzPi-10">
          <mxGeometry x="1460" y="30" width="120" height="50" as="geometry" />
        </mxCell>
        <mxCell id="7VwWwqNDW6o42_F8PzPi-39" value="Production" style="swimlane;html=1;startSize=20;horizontal=0;" vertex="1" parent="7VwWwqNDW6o42_F8PzPi-1">
          <mxGeometry x="20" y="510" width="1880" height="90" as="geometry" />
        </mxCell>
        <mxCell id="7VwWwqNDW6o42_F8PzPi-40" style="edgeStyle=orthogonalEdgeStyle;rounded=0;orthogonalLoop=1;jettySize=auto;html=1;" edge="1" parent="7VwWwqNDW6o42_F8PzPi-39" source="7VwWwqNDW6o42_F8PzPi-41" target="7VwWwqNDW6o42_F8PzPi-42">
          <mxGeometry relative="1" as="geometry" />
        </mxCell>
        <mxCell id="7VwWwqNDW6o42_F8PzPi-41" value="" style="points=[[0.145,0.145,0],[0.5,0,0],[0.855,0.145,0],[1,0.5,0],[0.855,0.855,0],[0.5,1,0],[0.145,0.855,0],[0,0.5,0]];shape=mxgraph.bpmn.event;html=1;verticalLabelPosition=bottom;labelBackgroundColor=#ffffff;verticalAlign=top;align=center;perimeter=ellipsePerimeter;outlineConnect=0;aspect=fixed;outline=standard;symbol=general;" vertex="1" parent="7VwWwqNDW6o42_F8PzPi-39">
          <mxGeometry x="50" y="20" width="50" height="50" as="geometry" />
        </mxCell>
        <mxCell id="7VwWwqNDW6o42_F8PzPi-42" value="receive order from S&amp;amp;M Dept." style="points=[[0.25,0,0],[0.5,0,0],[0.75,0,0],[1,0.25,0],[1,0.5,0],[1,0.75,0],[0.75,1,0],[0.5,1,0],[0.25,1,0],[0,0.75,0],[0,0.5,0],[0,0.25,0]];shape=mxgraph.bpmn.task;whiteSpace=wrap;rectStyle=rounded;size=10;html=1;taskMarker=abstract;" vertex="1" parent="7VwWwqNDW6o42_F8PzPi-39">
          <mxGeometry x="130" y="20" width="120" height="50" as="geometry" />
        </mxCell>
        <mxCell id="7VwWwqNDW6o42_F8PzPi-46" style="edgeStyle=orthogonalEdgeStyle;rounded=0;orthogonalLoop=1;jettySize=auto;html=1;entryX=0.5;entryY=1;entryDx=0;entryDy=0;entryPerimeter=0;" edge="1" parent="7VwWwqNDW6o42_F8PzPi-1" source="7VwWwqNDW6o42_F8PzPi-42" target="7VwWwqNDW6o42_F8PzPi-45">
          <mxGeometry relative="1" as="geometry" />
        </mxCell>
        <mxCell id="7VwWwqNDW6o42_F8PzPi-53" style="edgeStyle=orthogonalEdgeStyle;rounded=0;orthogonalLoop=1;jettySize=auto;html=1;entryX=0.5;entryY=1;entryDx=0;entryDy=0;entryPerimeter=0;" edge="1" parent="7VwWwqNDW6o42_F8PzPi-1" source="7VwWwqNDW6o42_F8PzPi-45" target="7VwWwqNDW6o42_F8PzPi-47">
          <mxGeometry relative="1" as="geometry" />
        </mxCell>
        <mxCell id="7VwWwqNDW6o42_F8PzPi-52" style="edgeStyle=orthogonalEdgeStyle;rounded=0;orthogonalLoop=1;jettySize=auto;html=1;entryX=0;entryY=0.5;entryDx=0;entryDy=0;entryPerimeter=0;" edge="1" parent="7VwWwqNDW6o42_F8PzPi-1" source="7VwWwqNDW6o42_F8PzPi-50" target="7VwWwqNDW6o42_F8PzPi-49">
          <mxGeometry relative="1" as="geometry" />
        </mxCell>
        <mxCell id="7VwWwqNDW6o42_F8PzPi-61" style="edgeStyle=orthogonalEdgeStyle;rounded=0;orthogonalLoop=1;jettySize=auto;html=1;" edge="1" parent="7VwWwqNDW6o42_F8PzPi-1" source="7VwWwqNDW6o42_F8PzPi-49" target="7VwWwqNDW6o42_F8PzPi-55">
          <mxGeometry relative="1" as="geometry" />
        </mxCell>
        <mxCell id="7VwWwqNDW6o42_F8PzPi-62" value="no" style="edgeLabel;html=1;align=center;verticalAlign=middle;resizable=0;points=[];" vertex="1" connectable="0" parent="7VwWwqNDW6o42_F8PzPi-61">
          <mxGeometry x="-0.1984" y="1" relative="1" as="geometry">
            <mxPoint as="offset" />
          </mxGeometry>
        </mxCell>
        <mxCell id="7VwWwqNDW6o42_F8PzPi-63" style="edgeStyle=orthogonalEdgeStyle;rounded=0;orthogonalLoop=1;jettySize=auto;html=1;" edge="1" parent="7VwWwqNDW6o42_F8PzPi-1" source="7VwWwqNDW6o42_F8PzPi-49" target="7VwWwqNDW6o42_F8PzPi-59">
          <mxGeometry relative="1" as="geometry" />
        </mxCell>
        <mxCell id="7VwWwqNDW6o42_F8PzPi-64" value="yes" style="edgeLabel;html=1;align=center;verticalAlign=middle;resizable=0;points=[];" vertex="1" connectable="0" parent="7VwWwqNDW6o42_F8PzPi-63">
          <mxGeometry x="-0.5574" y="3" relative="1" as="geometry">
            <mxPoint as="offset" />
          </mxGeometry>
        </mxCell>
        <mxCell id="7VwWwqNDW6o42_F8PzPi-77" style="edgeStyle=orthogonalEdgeStyle;rounded=0;orthogonalLoop=1;jettySize=auto;html=1;exitX=0.5;exitY=1;exitDx=0;exitDy=0;exitPerimeter=0;entryX=0.5;entryY=0;entryDx=0;entryDy=0;entryPerimeter=0;" edge="1" parent="7VwWwqNDW6o42_F8PzPi-1" source="7VwWwqNDW6o42_F8PzPi-74" target="7VwWwqNDW6o42_F8PzPi-75">
          <mxGeometry relative="1" as="geometry">
            <mxPoint x="1459.99652173913" y="270.0434782608696" as="sourcePoint" />
            <mxPoint x="1541" y="420" as="targetPoint" />
            <Array as="points">
              <mxPoint x="1435" y="340" />
              <mxPoint x="1540" y="340" />
            </Array>
          </mxGeometry>
        </mxCell>
        <mxCell id="7VwWwqNDW6o42_F8PzPi-78" value="yes" style="edgeLabel;html=1;align=center;verticalAlign=middle;resizable=0;points=[];" vertex="1" connectable="0" parent="7VwWwqNDW6o42_F8PzPi-77">
          <mxGeometry x="-0.2721" relative="1" as="geometry">
            <mxPoint as="offset" />
          </mxGeometry>
        </mxCell>
      </root>
    </mxGraphModel>
  </diagram>
</mxfile>
